<svg xmlns="http://www.w3.org/2000/svg" width="1024" height="1024">
<defs>
</defs>
<path d="M0,1023.5 C0,1023.5 0,0 0,0 C0,0 1024,0 1024,0 C1024,0 1024,1024 1024,1024 C1024,1024 0,1024 0,1024 C0,1024 0,1023.5 0,1023.5 Z M792.594,768.099 C815.476,759.229 828.518,737.046 828.532,713.571 C828.532,713.571 828.689,451.444 828.689,451.444 C828.691,446.695 825.463,441.952 821.267,440.743 C821.267,440.743 780.949,429.128 780.949,429.128 C780.949,429.128 722.819,413.393 722.819,413.393 C717.912,412.065 713.386,416.503 712.335,419.986 C711.089,424.118 711.624,431.045 716.544,432.451 C716.544,432.451 785.097,452.042 785.097,452.042 C785.097,452.042 598.293,519.104 598.293,519.104 C585.197,523.805 572.395,522.7 559.927,518.175 C559.927,518.175 521.093,504.08 521.093,504.08 C526.422,498.037 530.097,492.627 533.905,485.807 C533.905,485.807 590.495,384.474 590.495,384.474 C590.495,384.474 632.843,309.061 632.843,309.061 C638.029,299.825 635.947,289.511 628.182,282.723 C628.182,282.723 595.13,253.827 595.13,253.827 C576.009,237.112 547.164,238.449 527.964,254.776 C527.964,254.776 517.987,264.097 517.987,264.097 C517.987,264.097 477.223,302.409 477.223,302.409 C478.819,295.184 480.744,289.211 481.525,282.281 C483.726,262.776 478.286,243.078 464.938,227.997 C450.174,211.315 428.183,203.403 406.45,205.339 C374.906,208.147 350.227,229.365 342.562,259.82 C332.575,299.503 347.703,345.304 363.44,383.621 C330.625,367.939 292.793,352.23 256.843,355.582 C223.274,358.695 197.968,384.247 195.561,418.049 C193.023,453.681 217.607,485.646 255.028,488.785 C265.273,489.645 274.832,487.694 285.534,485.926 C285.534,485.926 233.061,535.867 233.061,535.867 C223.998,544.493 219.779,556.294 218.518,568.306 C216.837,584.313 224.127,598.439 234.967,610.006 C234.967,610.006 256.732,633.231 256.732,633.231 C263.587,640.545 273.594,641.638 281.979,635.945 C281.979,635.945 317.855,617.343 317.855,617.343 C317.855,617.343 317.656,708.887 317.656,708.887 C317.591,738.958 334.443,763.27 363.133,772.226 C363.133,772.226 483.038,809.653 483.038,809.653 C483.038,809.653 549.135,830.782 549.135,830.782 C568.652,837.021 589.174,838.14 608.621,831.481 C608.621,831.481 680.951,806.715 680.951,806.715 C680.951,806.715 792.594,768.099 792.594,768.099 Z M746.863,278.081 C755.705,268.459 757.849,253.74 751.345,242.922 C746.926,235.573 738.087,233.226 730.823,238.102 C719.167,245.924 715.768,261.95 721.359,274.538 C723.622,279.633 728.141,283.015 733.037,283.524 C737.932,284.034 742.972,282.315 746.863,278.081 Z M703.32,292.195 C709.979,282.617 709.086,269.319 701.392,260.799 C695.763,254.567 687.105,254.242 681.501,260.826 C673.657,270.042 674.256,285.065 682.838,293.952 C688.929,300.259 698.49,299.142 703.32,292.195 Z M783.634,299.991 C795.627,294.84 802.85,282.594 802.029,270.15 C801.682,264.894 799.19,260.767 795.759,258.517 C791.488,255.717 786.975,255.269 781.919,257.125 C768.759,261.957 760.471,275.744 762.482,289.53 C763.159,294.172 766.474,298.05 769.715,299.775 C773.934,302.022 778.525,302.187 783.634,299.991 Z M741.982,382.036 C749.794,385.41 757.844,383.851 764.544,379.223 C775.591,371.594 776.943,356.719 769.921,343.059 C766.03,335.491 763.871,327.937 762.328,319.812 C760.521,310.295 754.35,302.779 746.046,299.362 C737.696,295.927 727.893,296.909 720.05,302.125 C711.993,307.483 703.965,310.922 694.841,313.81 C684.848,316.973 677.104,325.53 676.06,335.872 C674.757,348.776 683.065,359.162 695.362,361.607 C695.362,361.607 713.01,363.174 713.01,363.174 C724.459,364.191 730.097,376.904 741.982,382.036 Z M796.661,340.982 C807.383,339.786 816.086,331.861 818.687,322.052 C819.913,317.427 819.241,312.765 816.295,309.494 C813.685,306.595 809.758,304.525 804.897,304.949 C793.821,305.915 784.217,313.946 781.912,324.912 C780.931,329.573 782.072,334.178 785.244,337.238 C787.613,339.525 791.693,341.536 796.661,340.982 Z M635.569,476.693 C638.821,454.07 648.995,433.266 667.757,419.817 C667.757,419.817 689.91,403.936 689.91,403.936 C695.409,399.994 697.923,393.695 694.275,388.35 C690.295,382.521 683.629,383.099 677.985,387.006 C668.601,393.502 659.761,399.497 650.903,406.996 C631.248,423.633 620.048,446.075 615.104,471.041 C613.765,477.802 615.132,483.993 621.83,485.819 C628.459,487.625 634.572,483.626 635.569,476.693 Z " fill="rgb(254,254,254)"/>
<path d="M792.594,768.099 C792.594,768.099 680.951,806.715 680.951,806.715 C680.951,806.715 608.621,831.481 608.621,831.481 C589.174,838.14 568.652,837.021 549.135,830.782 C549.135,830.782 483.038,809.653 483.038,809.653 C483.038,809.653 363.133,772.226 363.133,772.226 C334.443,763.27 317.591,738.958 317.656,708.887 C317.656,708.887 317.855,617.343 317.855,617.343 C317.855,617.343 281.979,635.945 281.979,635.945 C273.594,641.638 263.587,640.545 256.732,633.231 C256.732,633.231 234.967,610.006 234.967,610.006 C224.127,598.439 216.837,584.313 218.518,568.306 C219.779,556.294 223.998,544.493 233.061,535.867 C233.061,535.867 285.534,485.926 285.534,485.926 C274.832,487.694 265.273,489.645 255.028,488.785 C217.607,485.646 193.023,453.681 195.561,418.049 C197.968,384.247 223.274,358.695 256.843,355.582 C292.793,352.23 330.625,367.939 363.44,383.621 C347.703,345.304 332.575,299.503 342.562,259.82 C350.227,229.365 374.906,208.147 406.45,205.339 C428.183,203.403 450.174,211.315 464.938,227.997 C478.286,243.078 483.726,262.776 481.525,282.281 C480.744,289.211 478.819,295.184 477.223,302.409 C477.223,302.409 517.987,264.097 517.987,264.097 C517.987,264.097 527.964,254.776 527.964,254.776 C547.164,238.449 576.009,237.112 595.13,253.827 C595.13,253.827 628.182,282.723 628.182,282.723 C635.947,289.511 638.029,299.825 632.843,309.061 C632.843,309.061 590.495,384.474 590.495,384.474 C590.495,384.474 533.905,485.807 533.905,485.807 C530.097,492.627 526.422,498.037 521.093,504.08 C521.093,504.08 559.927,518.175 559.927,518.175 C572.395,522.7 585.197,523.805 598.293,519.104 C598.293,519.104 785.097,452.042 785.097,452.042 C785.097,452.042 716.544,432.451 716.544,432.451 C711.624,431.045 711.089,424.118 712.335,419.986 C713.386,416.503 717.912,412.065 722.819,413.393 C722.819,413.393 780.949,429.128 780.949,429.128 C780.949,429.128 821.267,440.743 821.267,440.743 C825.463,441.952 828.691,446.695 828.689,451.444 C828.689,451.444 828.532,713.571 828.532,713.571 C828.518,737.046 815.476,759.229 792.594,768.099 Z M390.398,392.366 C418.868,363.059 449.006,326.45 459.115,289.036 C463.594,272.459 460.89,255.321 449.666,242.206 C436.726,227.088 415.965,222.052 397.044,227.984 C365.543,237.861 356.957,269.227 360.971,301.092 C363.863,324.047 369.824,345.811 379.138,366.887 C379.138,366.887 390.398,392.366 390.398,392.366 Z M575.634,368.24 C575.634,368.24 614.852,298.586 614.852,298.586 C614.852,298.586 579.891,268.171 579.891,268.171 C569.432,259.072 553.854,261.16 542.99,269.031 C542.99,269.031 512.936,296.991 512.936,296.991 C512.936,296.991 467.401,341.039 467.401,341.039 C482.237,335.203 495.615,329.855 510.944,329.256 C537.438,327.077 557.502,349.702 575.634,368.24 Z M519.019,385.048 C530.686,393.166 540.014,403.209 550.016,413.862 C550.016,413.862 564.769,387.627 564.769,387.627 C555.321,376.327 545.145,365.812 533.129,356.921 C525.837,351.526 518.06,348.942 508.94,349.892 C481.788,352.718 444.308,375.254 421.699,392.801 C421.699,392.801 448.061,383.146 448.061,383.146 C473.003,374.011 496.808,367.427 519.019,385.048 Z M370.928,410.933 C346.17,397.368 321.529,386.233 294.987,379.491 C282.023,376.198 269.309,374.703 256.404,376.323 C245.413,378.353 235.546,382.432 228.072,391.031 C210.595,411.137 212.42,441.811 232.986,458.973 C243.146,467.452 256.068,470.008 269.029,467.956 C303.955,462.428 342.6,435.499 370.928,410.933 Z M383.034,518.059 C391.708,528.153 401.574,536.29 413.13,543.73 C413.13,543.73 485.139,505.33 485.139,505.33 C497.923,498.513 507.906,489.757 514.994,476.947 C514.994,476.947 539.254,433.099 539.254,433.099 C529.828,421.908 520.182,412.001 508.963,403.132 C502.972,398.396 496.655,395.008 488.956,394.277 C477.708,394.576 467.375,397.91 456.91,401.837 C456.91,401.837 432.074,411.158 432.074,411.158 C421.019,415.308 410.183,418.134 398.475,419.248 C396.116,445.062 381.32,464.004 375.198,486.938 C372.065,498.544 375.376,509.148 383.034,518.059 Z M429.686,771.02 C429.686,771.02 463.984,781.94 463.984,781.94 C461.283,769.556 460.98,758.276 461.023,745.966 C461.023,745.966 461.265,676.025 461.265,676.025 C461.998,636.768 454.816,598.459 421.754,575.229 C421.754,575.229 391.79,554.176 391.79,554.176 C379.268,545.377 368.442,534.665 360.467,521.609 C351.389,506.749 351.201,488.937 357.843,472.895 C357.843,472.895 372.042,438.601 372.042,438.601 C351.307,461.09 333.192,487.097 327.165,515.904 C324.554,528.383 328.069,539.409 336.055,549.09 C358.53,576.336 383.126,584.476 400.667,602.271 C415.919,617.744 419.495,639.661 419.593,661.38 C419.593,661.38 419.928,734.915 419.928,734.915 C419.987,747.938 422.394,759.928 429.686,771.02 Z M748.209,761.948 C748.209,761.948 779.184,751.369 779.184,751.369 C796.673,745.396 807.94,730.685 807.93,711.833 C807.93,711.833 807.807,465.729 807.807,465.729 C807.807,465.729 745.886,488.099 745.886,488.099 C749.732,498.097 750.488,507.773 751.723,518.506 C751.723,518.506 751.892,722.836 751.892,722.836 C751.904,736.402 751.296,748.433 748.209,761.948 Z M339.557,581.996 C330.71,573.627 323.267,566.897 316.989,558.005 C301.057,535.904 304.174,514.204 314.127,487.968 C314.127,487.968 254.025,543.889 254.025,543.889 C249.396,548.195 245.483,552.462 242.83,557.894 C236.241,570.097 238.721,583.974 248.174,593.898 C248.174,593.898 271.552,618.438 271.552,618.438 C271.552,618.438 339.557,581.996 339.557,581.996 Z M721.815,770.64 C727.085,761.679 730.73,751.599 730.744,740.455 C730.744,740.455 731.01,518.265 731.01,518.265 C729.543,509.954 729.893,503.084 725.952,495.283 C725.952,495.283 690.834,507.871 690.834,507.871 C693.741,519.457 694.558,530.101 694.552,542.172 C694.552,542.172 694.448,744.836 694.448,744.836 C694.441,758.033 693.639,769.625 690.161,781.41 C690.161,781.41 721.815,770.64 721.815,770.64 Z M568.193,814.487 C568.193,814.487 568.286,573.557 568.286,573.557 C569.313,567.82 572.599,564.428 577.728,563.911 C581.209,563.56 588.789,565.925 588.797,571.471 C588.797,571.471 589.171,814.553 589.171,814.553 C594.873,813.973 599.888,812.753 605.019,810.919 C605.019,810.919 654.438,793.251 654.438,793.251 C665.57,789.272 671.339,776.277 672.528,765.019 C672.528,765.019 673.925,751.79 673.925,751.79 C673.925,751.79 673.836,529.59 673.836,529.59 C673.834,524.378 672.278,519.727 671.137,514.798 C671.137,514.798 609.181,537.207 609.181,537.207 C589.166,544.446 569.602,543.637 549.765,536.469 C549.765,536.469 502.041,519.226 502.041,519.226 C502.041,519.226 482.905,529.949 482.905,529.949 C482.905,529.949 432.267,556.811 432.267,556.811 C432.267,556.811 444.181,566.986 444.181,566.986 C463.258,583.28 473.881,606.285 478.377,630.719 C481.536,647.884 482.058,664.339 482.103,682.045 C482.103,682.045 482.322,766.582 482.322,766.582 C482.344,775.174 485.323,782.992 489.928,790.138 C489.928,790.138 568.193,814.487 568.193,814.487 Z M402.979,762.47 C400.248,751.762 399.518,742.714 399.408,732.597 C399.408,732.597 398.503,649.501 398.503,649.501 C398.197,621.359 379.553,609.757 358.012,595.888 C358.012,595.888 338.322,605.984 338.322,605.984 C338.322,605.984 338.863,715.173 338.863,715.173 C338.94,730.74 349.408,745.516 363.777,750.063 C363.777,750.063 402.979,762.47 402.979,762.47 Z " fill="rgb(56,56,55)"/>
<path d="M741.982,382.036 C730.097,376.904 724.459,364.191 713.01,363.174 C713.01,363.174 695.362,361.607 695.362,361.607 C683.065,359.162 674.757,348.776 676.06,335.872 C677.104,325.53 684.848,316.973 694.841,313.81 C703.965,310.922 711.993,307.483 720.05,302.125 C727.893,296.909 737.696,295.927 746.046,299.362 C754.35,302.779 760.521,310.295 762.328,319.812 C763.871,327.937 766.03,335.491 769.921,343.059 C776.943,356.719 775.591,371.594 764.544,379.223 C757.844,383.851 749.794,385.41 741.982,382.036 Z " fill="rgb(56,56,56)"/>
<path d="M635.569,476.693 C634.572,483.626 628.459,487.625 621.83,485.819 C615.132,483.993 613.765,477.802 615.104,471.041 C620.048,446.075 631.248,423.633 650.903,406.996 C659.761,399.497 668.601,393.502 677.985,387.006 C683.629,383.099 690.295,382.521 694.275,388.35 C697.923,393.695 695.409,399.994 689.91,403.936 C689.91,403.936 667.757,419.817 667.757,419.817 C648.995,433.266 638.821,454.07 635.569,476.693 Z " fill="rgb(55,55,55)"/>
<path d="M783.634,299.991 C778.525,302.187 773.934,302.022 769.715,299.775 C766.474,298.05 763.159,294.172 762.482,289.53 C760.471,275.744 768.759,261.957 781.919,257.125 C786.975,255.269 791.488,255.717 795.759,258.517 C799.19,260.767 801.682,264.894 802.029,270.15 C802.85,282.594 795.627,294.84 783.634,299.991 Z " fill="rgb(56,56,56)"/>
<path d="M746.863,278.081 C742.972,282.315 737.932,284.034 733.037,283.524 C728.141,283.015 723.622,279.633 721.359,274.538 C715.768,261.95 719.167,245.924 730.823,238.102 C738.087,233.226 746.926,235.573 751.345,242.922 C757.849,253.74 755.705,268.459 746.863,278.081 Z " fill="rgb(56,56,56)"/>
<path d="M703.32,292.195 C698.49,299.142 688.929,300.259 682.838,293.952 C674.256,285.065 673.657,270.042 681.501,260.826 C687.105,254.242 695.763,254.567 701.392,260.799 C709.086,269.319 709.979,282.617 703.32,292.195 Z " fill="rgb(56,56,56)"/>
<path d="M796.661,340.982 C791.693,341.536 787.613,339.525 785.244,337.238 C782.072,334.178 780.931,329.573 781.912,324.912 C784.217,313.946 793.821,305.915 804.897,304.949 C809.758,304.525 813.685,306.595 816.295,309.494 C819.241,312.765 819.913,317.427 818.687,322.052 C816.086,331.861 807.383,339.786 796.661,340.982 Z " fill="rgb(56,56,56)"/>
<path d="M568.193,814.487 C568.193,814.487 489.928,790.138 489.928,790.138 C485.323,782.992 482.344,775.174 482.322,766.582 C482.322,766.582 482.103,682.045 482.103,682.045 C482.058,664.339 481.536,647.884 478.377,630.719 C473.881,606.285 463.258,583.28 444.181,566.986 C444.181,566.986 432.267,556.811 432.267,556.811 C432.267,556.811 482.905,529.949 482.905,529.949 C482.905,529.949 502.041,519.226 502.041,519.226 C502.041,519.226 549.765,536.469 549.765,536.469 C569.602,543.637 589.166,544.446 609.181,537.207 C609.181,537.207 671.137,514.798 671.137,514.798 C672.278,519.727 673.834,524.378 673.836,529.59 C673.836,529.59 673.925,751.79 673.925,751.79 C673.925,751.79 672.528,765.019 672.528,765.019 C671.339,776.277 665.57,789.272 654.438,793.251 C654.438,793.251 605.019,810.919 605.019,810.919 C599.888,812.753 594.873,813.973 589.171,814.553 C589.171,814.553 588.797,571.471 588.797,571.471 C588.789,565.925 581.209,563.56 577.728,563.911 C572.599,564.428 569.313,567.82 568.286,573.557 C568.286,573.557 568.193,814.487 568.193,814.487 Z " fill="rgb(254,254,254)"/>
<path d="M383.034,518.059 C375.376,509.148 372.065,498.544 375.198,486.938 C381.32,464.004 396.116,445.062 398.475,419.248 C410.183,418.134 421.019,415.308 432.074,411.158 C432.074,411.158 456.91,401.837 456.91,401.837 C467.375,397.91 477.708,394.576 488.956,394.277 C496.655,395.008 502.972,398.396 508.963,403.132 C520.182,412.001 529.828,421.908 539.254,433.099 C539.254,433.099 514.994,476.947 514.994,476.947 C507.906,489.757 497.923,498.513 485.139,505.33 C485.139,505.33 413.13,543.73 413.13,543.73 C401.574,536.29 391.708,528.153 383.034,518.059 Z " fill="rgb(254,254,254)"/>
<path d="M748.209,761.948 C751.296,748.433 751.904,736.402 751.892,722.836 C751.892,722.836 751.723,518.506 751.723,518.506 C750.488,507.773 749.732,498.097 745.886,488.099 C745.886,488.099 807.807,465.729 807.807,465.729 C807.807,465.729 807.93,711.833 807.93,711.833 C807.94,730.685 796.673,745.396 779.184,751.369 C779.184,751.369 748.209,761.948 748.209,761.948 Z " fill="rgb(254,254,254)"/>
<path d="M429.686,771.02 C422.394,759.928 419.987,747.938 419.928,734.915 C419.928,734.915 419.593,661.38 419.593,661.38 C419.495,639.661 415.919,617.744 400.667,602.271 C383.126,584.476 358.53,576.336 336.055,549.09 C328.069,539.409 324.554,528.383 327.165,515.904 C333.192,487.097 351.307,461.09 372.042,438.601 C372.042,438.601 357.843,472.895 357.843,472.895 C351.201,488.937 351.389,506.749 360.467,521.609 C368.442,534.665 379.268,545.377 391.79,554.176 C391.79,554.176 421.754,575.229 421.754,575.229 C454.816,598.459 461.998,636.768 461.265,676.025 C461.265,676.025 461.023,745.966 461.023,745.966 C460.98,758.276 461.283,769.556 463.984,781.94 C463.984,781.94 429.686,771.02 429.686,771.02 Z " fill="rgb(254,254,254)"/>
<path d="M390.398,392.366 C390.398,392.366 379.138,366.887 379.138,366.887 C369.824,345.811 363.863,324.047 360.971,301.092 C356.957,269.227 365.543,237.861 397.044,227.984 C415.965,222.052 436.726,227.088 449.666,242.206 C460.89,255.321 463.594,272.459 459.115,289.036 C449.006,326.45 418.868,363.059 390.398,392.366 Z " fill="rgb(254,254,254)"/>
<path d="M721.815,770.64 C721.815,770.64 690.161,781.41 690.161,781.41 C693.639,769.625 694.441,758.033 694.448,744.836 C694.448,744.836 694.552,542.172 694.552,542.172 C694.558,530.101 693.741,519.457 690.834,507.871 C690.834,507.871 725.952,495.283 725.952,495.283 C729.893,503.084 729.543,509.954 731.01,518.265 C731.01,518.265 730.744,740.455 730.744,740.455 C730.73,751.599 727.085,761.679 721.815,770.64 Z " fill="rgb(254,254,254)"/>
<path d="M370.928,410.933 C342.6,435.499 303.955,462.428 269.029,467.956 C256.068,470.008 243.146,467.452 232.986,458.973 C212.42,441.811 210.595,411.137 228.072,391.031 C235.546,382.432 245.413,378.353 256.404,376.323 C269.309,374.703 282.023,376.198 294.987,379.491 C321.529,386.233 346.17,397.368 370.928,410.933 Z " fill="rgb(254,254,254)"/>
<path d="M402.979,762.47 C402.979,762.47 363.777,750.063 363.777,750.063 C349.408,745.516 338.94,730.74 338.863,715.173 C338.863,715.173 338.322,605.984 338.322,605.984 C338.322,605.984 358.012,595.888 358.012,595.888 C379.553,609.757 398.197,621.359 398.503,649.501 C398.503,649.501 399.408,732.597 399.408,732.597 C399.518,742.714 400.248,751.762 402.979,762.47 Z " fill="rgb(254,254,254)"/>
<path d="M575.634,368.24 C557.502,349.702 537.438,327.077 510.944,329.256 C495.615,329.855 482.237,335.203 467.401,341.039 C467.401,341.039 512.936,296.991 512.936,296.991 C512.936,296.991 542.99,269.031 542.99,269.031 C553.854,261.16 569.432,259.072 579.891,268.171 C579.891,268.171 614.852,298.586 614.852,298.586 C614.852,298.586 575.634,368.24 575.634,368.24 Z " fill="rgb(254,254,254)"/>
<path d="M339.557,581.996 C339.557,581.996 271.552,618.438 271.552,618.438 C271.552,618.438 248.174,593.898 248.174,593.898 C238.721,583.974 236.241,570.097 242.83,557.894 C245.483,552.462 249.396,548.195 254.025,543.889 C254.025,543.889 314.127,487.968 314.127,487.968 C304.174,514.204 301.057,535.904 316.989,558.005 C323.267,566.897 330.71,573.627 339.557,581.996 Z " fill="rgb(254,254,254)"/>
<path d="M519.019,385.048 C496.808,367.427 473.003,374.011 448.061,383.146 C448.061,383.146 421.699,392.801 421.699,392.801 C444.308,375.254 481.788,352.718 508.94,349.892 C518.06,348.942 525.837,351.526 533.129,356.921 C545.145,365.812 555.321,376.327 564.769,387.627 C564.769,387.627 550.016,413.862 550.016,413.862 C540.014,403.209 530.686,393.166 519.019,385.048 Z " fill="rgb(254,254,254)"/>
</svg>